<?xml version="1.0" encoding="UTF-8" standalone="no"?>
<svg
   xmlns:dc="http://purl.org/dc/elements/1.1/"
   xmlns:cc="http://creativecommons.org/ns#"
   xmlns:rdf="http://www.w3.org/1999/02/22-rdf-syntax-ns#"
   xmlns:svg="http://www.w3.org/2000/svg"
   xmlns="http://www.w3.org/2000/svg"
   xmlns:sodipodi="http://sodipodi.sourceforge.net/DTD/sodipodi-0.dtd"
   xmlns:inkscape="http://www.inkscape.org/namespaces/inkscape"
   inkscape:version="1.0beta2 (2b71d25, 2019-12-03)"
   height="398"
   width="275"
   sodipodi:docname="playerFace1.svg"
   version="1.1"
   viewBox="0 0 275 398"
   data-name="Layer 1"
   id="Layer_1">
  <metadata
     id="metadata54">
    <rdf:RDF>
      <cc:Work
         rdf:about="">
        <dc:format>image/svg+xml</dc:format>
        <dc:type
           rdf:resource="http://purl.org/dc/dcmitype/StillImage" />
        <dc:title>playerFace</dc:title>
      </cc:Work>
    </rdf:RDF>
  </metadata>
  <sodipodi:namedview
     inkscape:current-layer="Layer_1"
     inkscape:window-maximized="0"
     inkscape:window-y="26"
     inkscape:window-x="134"
     inkscape:cy="206.25"
     inkscape:cx="100"
     inkscape:zoom="1.36"
     inkscape:guide-bbox="true"
     showguides="true"
     showgrid="false"
     id="namedview52"
     inkscape:window-height="886"
     inkscape:window-width="1025"
     inkscape:pageshadow="2"
     inkscape:pageopacity="0"
     guidetolerance="10"
     gridtolerance="10"
     objecttolerance="10"
     borderopacity="1"
     inkscape:document-rotation="0"
     bordercolor="#666666"
     pagecolor="#ffffff" />
  <defs
     id="defs35">
    <style
       id="style33">.cls-2{fill:#ffcb98;}.cls-3{fill:#ff9d9d;}</style>
  </defs>
  <title
     id="title37">playerFace</title>
  <path
     style="stroke-width:1.34796"
     inkscape:connector-curvature="0"
     id="path39"
     d="M 194.71604,45.698463 C 244.20369,73.508885 257.8089,140.20071 224.30217,190.06912 208.4251,213.72267 188.21202,230.18219 160.4304,234.01714 116.74573,240.0635 68.997678,213.41476 51.017511,171.13228 20.081237,98.352115 65.051128,33.4518 132.44104,31.422353 c 1.53189,0 3.06378,0 4.59566,0 20.14817,0.433882 39.71215,4.170864 57.67934,14.27611 z M 217.05818,184.52663 C 244.95665,141.85226 236.53129,85.475624 197.58507,58.742908 178.90387,45.922402 157.95081,41.849512 135.73849,41.065725 131.3895,41.401634 126.57316,41.569588 121.79575,42.143431 90.041613,45.89441 61.558951,69.925861 53.782691,99.401829 42.981609,140.39665 58.014846,184.6386 91.949978,206.43067 132.32421,232.37959 183.39567,236.00461 217.05818,184.52663 Z" />
  <path
     style="stroke-width:1.34796"
     inkscape:connector-curvature="0"
     id="path41"
     d="m 197.59806,58.742908 c 38.94621,26.732716 47.35859,83.109352 19.4731,125.783722 -33.67549,51.47798 -84.74695,47.85296 -125.121182,21.90404 C 58.014846,184.6386 42.981609,140.34067 53.782691,99.401829 61.571934,69.925861 90.041613,45.89441 121.80874,42.143431 c 4.77739,-0.573843 9.59374,-0.741797 13.94273,-1.077706 22.21232,0.783787 43.16539,4.856677 61.84659,17.677183 z m -13.34558,90.261402 c 5.80299,-3.59702 12.0214,-4.94065 18.38262,1.87549 -0.55823,-5.92039 -10.86599,-15.01791 -14.16344,-13.54831 -0.0908,1.70754 -0.19473,3.56902 -0.31157,5.68246 -2.23291,0.60182 -4.32302,1.39962 -6.49103,1.73552 a 218.0079,235.03795 0 0 1 -82.851563,-1.73552 c -2.817113,-0.65783 -5.29669,-3.03718 -8.477296,-4.94066 -2.206952,4.43678 -9.489893,6.18631 -10.126015,15.24184 2.103095,-1.52557 3.336392,-2.04344 4.063387,-3.00918 3.245519,-4.33881 6.685767,-4.67472 11.956487,-3.59701 15.57848,3.21912 31.50748,5.4865 47.35858,7.26402 4.68653,0.53185 7.20506,1.73552 9.55481,6.25629 6.16648,11.85477 14.44904,20.85432 28.56055,19.59467 8.82781,-0.75581 13.29364,-7.09608 10.25584,-15.99765 -1.80451,-5.29056 -5.11494,-9.99327 -7.71136,-14.82196 z m 0.35052,-29.48997 a 12.774357,13.772247 0 0 0 -25.50976,-1.39961 c -0.32456,7.27801 5.19283,14.44407 11.3593,14.80797 a 13.449424,14.500049 0 0 0 14.11151,-13.40836 z m -73.28378,11.029 c 6.3742,-0.16795 11.85263,-6.80215 11.78771,-14.26211 a 12.60559,13.590296 0 0 0 -13.18978,-13.39435 12.475769,13.450335 0 0 0 -12.164186,13.74425 12.98207,13.996186 0 0 0 13.566256,13.91221 z"
     class="cls-2" />
  <path
     style="stroke-width:1.34796"
     inkscape:connector-curvature="0"
     id="path43"
     d="m 202.59616,150.8798 c -6.36122,-6.81614 -12.57964,-5.47251 -18.38262,-1.87549 2.59642,4.82869 5.94579,9.54539 7.78924,14.86395 3.03781,8.90158 -1.42802,15.24185 -10.25583,15.99764 -14.12449,1.21767 -22.40706,-7.78188 -28.56056,-19.59467 -2.34975,-4.52076 -4.86828,-5.72443 -9.5548,-6.25628 -15.85111,-1.77752 -31.7152,-4.0449 -47.358583,-7.26402 -5.270721,-1.07771 -8.710969,-0.74181 -11.956486,3.59701 -0.726997,0.96574 -1.960293,1.4836 -4.063389,3.00918 0.636122,-9.05553 7.919063,-10.80505 10.126015,-15.24184 3.180608,1.90348 5.660183,4.28283 8.477296,4.94065 a 218.0079,235.03795 0 0 0 82.799637,1.69354 c 2.12905,-0.39189 4.21917,-1.1337 6.49103,-1.73552 0.11684,-2.11344 0.22069,-3.97492 0.31157,-5.68246 3.27148,-1.4696 13.57924,7.62792 14.13748,13.54831 z m -21.34253,25.44507 c 3.24552,-0.3779 8.97061,-3.73699 8.82781,-5.12261 a 30.780488,33.184958 0 0 0 -5.11494,-14.98992 c -2.76518,-4.19885 -7.28294,-7.41797 -12.29402,-3.82096 2.88202,4.88468 5.54334,9.43344 8.21765,13.99619 l -1.60977,1.04972 c -10.07409,-14.96192 -11.94351,-15.84369 -25.69152,-12.21868 5.46545,14.20613 15.82514,22.50588 27.66479,21.10626 z" />
  <path
     style="stroke-width:1.34796"
     inkscape:connector-curvature="0"
     id="path45"
     d="m 190.08144,171.20226 c 0.1428,1.39962 -5.58229,4.74471 -8.82781,5.12261 -11.83965,1.39962 -22.19934,-6.90013 -27.66479,-21.13424 13.74801,-3.62502 15.57848,-2.79925 25.69152,12.21867 l 1.60977,-1.04971 c -2.67431,-4.53477 -5.33563,-9.08353 -8.21765,-13.99619 5.01108,-3.59703 9.52884,-0.33592 12.29402,3.82095 a 30.780488,33.184958 0 0 1 5.11494,15.01791 z"
     class="cls-3" />
  <path
     style="stroke-width:1.34796"
     inkscape:connector-curvature="0"
     id="path47"
     d="m 172.75037,105.35021 a 12.722428,13.716263 0 0 1 11.81368,14.19213 13.449424,14.500049 0 0 1 -14.15045,13.45034 c -6.19245,-0.36391 -11.68386,-7.52996 -11.35931,-14.80797 a 12.618572,13.604293 0 0 1 13.69608,-12.8345 z" />
  <path
     style="stroke-width:1.34796"
     inkscape:connector-curvature="0"
     id="path49"
     d="m 123.10693,116.26724 c 0,7.45996 -5.41351,14.09415 -11.78771,14.26211 a 12.98207,13.996186 0 0 1 -13.566256,-13.91222 12.475769,13.450335 0 0 1 12.164186,-13.74425 12.60559,13.590296 0 0 1 13.18978,13.39436 z" />
</svg>
