<svg id="Layer_1" data-name="Layer 1" xmlns="http://www.w3.org/2000/svg" viewBox="0 0 200 200"><defs><style>.cls-2{fill:#ffcb98;}.cls-3{fill:#ff9d9d;}</style></defs><title>playerFace</title><path d="M145.06,43.38c38.12,19.87,48.6,67.52,22.79,103.15-12.23,16.9-27.8,28.66-49.2,31.4C85,182.25,48.22,163.21,34.37,133,10.54,81,45.18,34.63,97.09,33.18c1.18,0,2.36,0,3.54,0C116.15,33.49,131.22,36.16,145.06,43.38Zm17.21,99.19c21.49-30.49,15-70.77-15-89.87-14.39-9.16-30.53-12.07-47.64-12.63-3.35.24-7.06.36-10.74.77C64.43,43.52,42.49,60.69,36.5,81.75c-8.32,29.29,3.26,60.9,29.4,76.47C97,176.76,136.34,179.35,162.27,142.57Z" transform="translate(-6.23 -7.64)"/><path class="cls-2" d="M147.28,52.7c30,19.1,36.48,59.38,15,89.87C136.34,179.35,97,176.76,65.9,158.22,39.76,142.65,28.18,111,36.5,81.75c6-21.06,27.93-38.23,52.4-40.91,3.68-.41,7.39-.53,10.74-.77C116.75,40.63,132.89,43.54,147.28,52.7ZM137,117.19c4.47-2.57,9.26-3.53,14.16,1.34-.43-4.23-8.37-10.73-10.91-9.68-.07,1.22-.15,2.55-.24,4.06-1.72.43-3.33,1-5,1.24a167.93,167.93,0,0,1-63.82-1.24c-2.17-.47-4.08-2.17-6.53-3.53-1.7,3.17-7.31,4.42-7.8,10.89,1.62-1.09,2.57-1.46,3.13-2.15,2.5-3.1,5.15-3.34,9.21-2.57,12,2.3,24.27,3.92,36.48,5.19,3.61.38,5.55,1.24,7.36,4.47,4.75,8.47,11.13,14.9,22,14,6.8-.54,10.24-5.07,7.9-11.43C141.55,124,139,120.64,137,117.19Zm.27-21.07a9.84,9.84,0,0,0-19.65-1c-.25,5.2,4,10.32,8.75,10.58A10.36,10.36,0,0,0,137.24,96.12ZM80.82,104c4.91-.12,9.13-4.86,9.08-10.19a9.71,9.71,0,0,0-10.16-9.57,9.61,9.61,0,0,0-9.37,9.82A10,10,0,0,0,80.82,104Z" transform="translate(-6.23 -7.64)"/><path d="M151.13,118.53c-4.9-4.87-9.69-3.91-14.16-1.34,2,3.45,4.58,6.82,6,10.62,2.34,6.36-1.1,10.89-7.9,11.43-10.88.87-17.26-5.56-22-14-1.81-3.23-3.75-4.09-7.36-4.47-12.21-1.27-24.43-2.89-36.48-5.19-4.06-.77-6.71-.53-9.21,2.57-.56.69-1.51,1.06-3.13,2.15.49-6.47,6.1-7.72,7.8-10.89,2.45,1.36,4.36,3.06,6.53,3.53A167.93,167.93,0,0,0,135,114.15c1.64-.28,3.25-.81,5-1.24.09-1.51.17-2.84.24-4.06C142.76,107.8,150.7,114.3,151.13,118.53Zm-16.44,18.18c2.5-.27,6.91-2.67,6.8-3.66a23.71,23.71,0,0,0-3.94-10.71c-2.13-3-5.61-5.3-9.47-2.73,2.22,3.49,4.27,6.74,6.33,10l-1.24.75c-7.76-10.69-9.2-11.32-19.79-8.73C117.59,131.78,125.57,137.71,134.69,136.71Z" transform="translate(-6.23 -7.64)"/><path class="cls-3" d="M141.49,133.05c.11,1-4.3,3.39-6.8,3.66-9.12,1-17.1-4.93-21.31-15.1,10.59-2.59,12-2,19.79,8.73l1.24-.75c-2.06-3.24-4.11-6.49-6.33-10,3.86-2.57,7.34-.24,9.47,2.73A23.71,23.71,0,0,1,141.49,133.05Z" transform="translate(-6.23 -7.64)"/><path d="M128.14,86a9.8,9.8,0,0,1,9.1,10.14,10.36,10.36,0,0,1-10.9,9.61c-4.77-.26-9-5.38-8.75-10.58A9.72,9.72,0,0,1,128.14,86Z" transform="translate(-6.23 -7.64)"/><path d="M89.9,93.8c0,5.33-4.17,10.07-9.08,10.19a10,10,0,0,1-10.45-9.94,9.61,9.61,0,0,1,9.37-9.82A9.71,9.71,0,0,1,89.9,93.8Z" transform="translate(-6.23 -7.64)"/></svg>